<svg width="114" height="110" viewBox="0 0 114 110" fill="none" xmlns="http://www.w3.org/2000/svg">
<path d="M103.971 60.5102C107.43 57.0404 110.096 52.9304 111.802 48.4377C113.508 43.945 114.217 39.1665 113.885 34.4018C113.553 29.637 112.186 24.9886 109.872 20.7481C107.557 16.5075 104.344 12.7661 100.433 9.75849C96.5226 6.75084 91.9993 4.54174 87.1466 3.26964C82.2939 1.99755 77.2164 1.68989 72.2325 2.36595C67.2486 3.04201 62.4657 4.68722 58.1835 7.19845C53.9013 9.70968 50.2121 13.0328 47.3473 16.9595C45.9632 13.4826 43.7162 10.3732 40.7964 7.89459C37.8766 5.41604 34.37 3.64133 30.5737 2.72076C26.7774 1.80019 22.8031 1.76087 18.9873 2.60613C15.1716 3.45138 11.6268 5.15632 8.65308 7.57657C5.6794 9.99682 3.36444 13.0611 1.90421 16.5099C0.443986 19.9587 -0.118491 23.6905 0.264414 27.3892C0.647319 31.0879 1.96433 34.6447 4.10391 37.7582C6.2435 40.8718 9.14265 43.4505 12.5559 45.2759C9.42667 47.2753 6.74799 49.8449 4.67572 52.8354C2.60345 55.8258 1.17896 59.1774 0.48517 62.6949C-0.208622 66.2124 -0.157864 69.8257 0.634488 73.3244C1.42684 76.8231 2.94496 80.1375 5.1005 83.0745C7.25604 86.0115 10.0059 88.5126 13.1902 90.4321C16.3744 92.3517 19.9294 93.6514 23.6482 94.2556C27.367 94.8598 31.1753 94.7564 34.8516 93.9515C38.5279 93.1466 41.9987 91.6562 45.062 89.5671C45.7885 95.4299 48.8505 100.807 53.6211 104.599C58.3917 108.39 64.5099 110.308 70.7229 109.96C76.9359 109.612 82.7736 107.024 87.0406 102.727C91.3076 98.4293 93.681 92.7473 93.6749 86.8442C93.6749 86.3737 93.6301 85.9186 93.6017 85.4558C95.3593 86.2694 97.2753 86.7293 99.2294 86.8067C101.183 86.8841 103.133 86.5772 104.956 85.9054C106.779 85.2335 108.436 84.2113 109.822 82.9028C111.209 81.5944 112.295 80.0281 113.012 78.3024C113.729 76.5767 114.062 74.7289 113.99 72.8752C113.918 71.0215 113.443 69.2019 112.594 67.5309C111.745 65.8599 110.54 64.3736 109.056 63.1653C107.572 61.9571 105.841 61.0531 103.971 60.5102ZM77.4096 9.70878C83.0393 9.70878 88.5425 11.2921 93.2235 14.2587C97.9044 17.2252 101.553 21.4416 103.707 26.3747C105.861 31.3079 106.425 36.7361 105.327 41.9731C104.229 47.2101 101.518 52.0206 97.5368 55.7962C93.556 59.5719 88.4842 62.1432 82.9627 63.1849C77.4411 64.2266 71.7179 63.6919 66.5168 61.6485C61.3156 59.6052 56.8701 56.1448 53.7424 51.7051C50.6147 47.2654 48.9453 42.0458 48.9453 36.7062C48.954 29.5485 51.9556 22.6864 57.2918 17.6252C62.628 12.5639 69.863 9.71695 77.4096 9.70878ZM24.5474 9.70878C27.7644 9.70878 30.9091 10.6136 33.5839 12.3087C36.2587 14.0039 38.3435 16.4132 39.5746 19.2322C40.8057 22.0511 41.1278 25.153 40.5002 28.1455C39.8726 31.1381 38.3235 33.887 36.0487 36.0445C33.774 38.202 30.8758 39.6713 27.7206 40.2665C24.5655 40.8618 21.2951 40.5563 18.323 39.3886C15.3509 38.221 12.8106 36.2437 11.0233 33.7067C9.23609 31.1697 8.28215 28.1871 8.28215 25.1359C8.28753 21.0459 10.0029 17.1249 13.0521 14.2329C16.1012 11.3409 20.2353 9.71388 24.5474 9.70878ZM69.2769 102.271C66.06 102.271 62.9152 101.367 60.2404 99.6714C57.5656 97.9762 55.4809 95.5669 54.2498 92.7479C53.0187 89.929 52.6966 86.8271 53.3242 83.8346C53.9518 80.842 55.5009 78.0932 57.7757 75.9356C60.0504 73.7781 62.9486 72.3088 66.1037 71.7136C69.2589 71.1183 72.5293 71.4238 75.5014 72.5915C78.4735 73.7591 81.0138 75.7364 82.801 78.2734C84.5883 80.8104 85.5422 83.793 85.5422 86.8442C85.5368 90.9342 83.8214 94.8552 80.7723 97.7472C77.7231 100.639 73.5891 102.266 69.2769 102.271Z" fill="url(#paint0_linear)"/>
<path d="M103.971 60.5102C107.43 57.0404 110.096 52.9304 111.802 48.4377C113.508 43.945 114.217 39.1665 113.885 34.4018C113.553 29.637 112.186 24.9886 109.872 20.7481C107.557 16.5075 104.344 12.7661 100.433 9.75849C96.5226 6.75084 91.9993 4.54174 87.1466 3.26964C82.2939 1.99755 77.2164 1.68989 72.2325 2.36595C67.2486 3.04201 62.4657 4.68722 58.1835 7.19845C53.9013 9.70968 50.2121 13.0328 47.3473 16.9595C45.9632 13.4826 43.7162 10.3732 40.7964 7.89459C37.8766 5.41604 34.37 3.64133 30.5737 2.72076C26.7774 1.80019 22.8031 1.76087 18.9873 2.60613C15.1716 3.45138 11.6268 5.15632 8.65308 7.57657C5.6794 9.99682 3.36444 13.0611 1.90421 16.5099C0.443986 19.9587 -0.118491 23.6905 0.264414 27.3892C0.647319 31.0879 1.96433 34.6447 4.10391 37.7582C6.2435 40.8718 9.14265 43.4505 12.5559 45.2759C9.42667 47.2753 6.74799 49.8449 4.67572 52.8354C2.60345 55.8258 1.17896 59.1774 0.48517 62.6949C-0.208622 66.2124 -0.157864 69.8257 0.634488 73.3244C1.42684 76.8231 2.94496 80.1375 5.1005 83.0745C7.25604 86.0115 10.0059 88.5126 13.1902 90.4321C16.3744 92.3517 19.9294 93.6514 23.6482 94.2556C27.367 94.8598 31.1753 94.7564 34.8516 93.9515C38.5279 93.1466 41.9987 91.6562 45.062 89.5671C45.7885 95.4299 48.8505 100.807 53.6211 104.599C58.3917 108.39 64.5099 110.308 70.7229 109.96C76.9359 109.612 82.7736 107.024 87.0406 102.727C91.3076 98.4293 93.681 92.7473 93.6749 86.8442C93.6749 86.3737 93.6301 85.9186 93.6017 85.4558C95.3593 86.2694 97.2753 86.7293 99.2294 86.8067C101.183 86.8841 103.133 86.5772 104.956 85.9054C106.779 85.2335 108.436 84.2113 109.822 82.9028C111.209 81.5944 112.295 80.0281 113.012 78.3024C113.729 76.5767 114.062 74.7289 113.99 72.8752C113.918 71.0215 113.443 69.2019 112.594 67.5309C111.745 65.8599 110.54 64.3736 109.056 63.1653C107.572 61.9571 105.841 61.0531 103.971 60.5102ZM77.4096 9.70878C83.0393 9.70878 88.5425 11.2921 93.2235 14.2587C97.9044 17.2252 101.553 21.4416 103.707 26.3747C105.861 31.3079 106.425 36.7361 105.327 41.9731C104.229 47.2101 101.518 52.0206 97.5368 55.7962C93.556 59.5719 88.4842 62.1432 82.9627 63.1849C77.4411 64.2266 71.7179 63.6919 66.5168 61.6485C61.3156 59.6052 56.8701 56.1448 53.7424 51.7051C50.6147 47.2654 48.9453 42.0458 48.9453 36.7062C48.954 29.5485 51.9556 22.6864 57.2918 17.6252C62.628 12.5639 69.863 9.71695 77.4096 9.70878ZM24.5474 9.70878C27.7644 9.70878 30.9091 10.6136 33.5839 12.3087C36.2587 14.0039 38.3435 16.4132 39.5746 19.2322C40.8057 22.0511 41.1278 25.153 40.5002 28.1455C39.8726 31.1381 38.3235 33.887 36.0487 36.0445C33.774 38.202 30.8758 39.6713 27.7206 40.2665C24.5655 40.8618 21.2951 40.5563 18.323 39.3886C15.3509 38.221 12.8106 36.2437 11.0233 33.7067C9.23609 31.1697 8.28215 28.1871 8.28215 25.1359C8.28753 21.0459 10.0029 17.1249 13.0521 14.2329C16.1012 11.3409 20.2353 9.71388 24.5474 9.70878ZM69.2769 102.271C66.06 102.271 62.9152 101.367 60.2404 99.6714C57.5656 97.9762 55.4809 95.5669 54.2498 92.7479C53.0187 89.929 52.6966 86.8271 53.3242 83.8346C53.9518 80.842 55.5009 78.0932 57.7757 75.9356C60.0504 73.7781 62.9486 72.3088 66.1037 71.7136C69.2589 71.1183 72.5293 71.4238 75.5014 72.5915C78.4735 73.7591 81.0138 75.7364 82.801 78.2734C84.5883 80.8104 85.5422 83.793 85.5422 86.8442C85.5368 90.9342 83.8214 94.8552 80.7723 97.7472C77.7231 100.639 73.5891 102.266 69.2769 102.271Z" fill="url(#paint1_linear)"/>
<path d="M103.971 60.5102C107.43 57.0404 110.096 52.9304 111.802 48.4377C113.508 43.945 114.217 39.1665 113.885 34.4018C113.553 29.637 112.186 24.9886 109.872 20.7481C107.557 16.5075 104.344 12.7661 100.433 9.75849C96.5226 6.75084 91.9993 4.54174 87.1466 3.26964C82.2939 1.99755 77.2164 1.68989 72.2325 2.36595C67.2486 3.04201 62.4657 4.68722 58.1835 7.19845C53.9013 9.70968 50.2121 13.0328 47.3473 16.9595C45.9632 13.4826 43.7162 10.3732 40.7964 7.89459C37.8766 5.41604 34.37 3.64133 30.5737 2.72076C26.7774 1.80019 22.8031 1.76087 18.9873 2.60613C15.1716 3.45138 11.6268 5.15632 8.65308 7.57657C5.6794 9.99682 3.36444 13.0611 1.90421 16.5099C0.443986 19.9587 -0.118491 23.6905 0.264414 27.3892C0.647319 31.0879 1.96433 34.6447 4.10391 37.7582C6.2435 40.8718 9.14265 43.4505 12.5559 45.2759C9.42667 47.2753 6.74799 49.8449 4.67572 52.8354C2.60345 55.8258 1.17896 59.1774 0.48517 62.6949C-0.208622 66.2124 -0.157864 69.8257 0.634488 73.3244C1.42684 76.8231 2.94496 80.1375 5.1005 83.0745C7.25604 86.0115 10.0059 88.5126 13.1902 90.4321C16.3744 92.3517 19.9294 93.6514 23.6482 94.2556C27.367 94.8598 31.1753 94.7564 34.8516 93.9515C38.5279 93.1466 41.9987 91.6562 45.062 89.5671C45.7885 95.4299 48.8505 100.807 53.6211 104.599C58.3917 108.39 64.5099 110.308 70.7229 109.96C76.9359 109.612 82.7736 107.024 87.0406 102.727C91.3076 98.4293 93.681 92.7473 93.6749 86.8442C93.6749 86.3737 93.6301 85.9186 93.6017 85.4558C95.3593 86.2694 97.2753 86.7293 99.2294 86.8067C101.183 86.8841 103.133 86.5772 104.956 85.9054C106.779 85.2335 108.436 84.2113 109.822 82.9028C111.209 81.5944 112.295 80.0281 113.012 78.3024C113.729 76.5767 114.062 74.7289 113.99 72.8752C113.918 71.0215 113.443 69.2019 112.594 67.5309C111.745 65.8599 110.54 64.3736 109.056 63.1653C107.572 61.9571 105.841 61.0531 103.971 60.5102ZM77.4096 9.70878C83.0393 9.70878 88.5425 11.2921 93.2235 14.2587C97.9044 17.2252 101.553 21.4416 103.707 26.3747C105.861 31.3079 106.425 36.7361 105.327 41.9731C104.229 47.2101 101.518 52.0206 97.5368 55.7962C93.556 59.5719 88.4842 62.1432 82.9627 63.1849C77.4411 64.2266 71.7179 63.6919 66.5168 61.6485C61.3156 59.6052 56.8701 56.1448 53.7424 51.7051C50.6147 47.2654 48.9453 42.0458 48.9453 36.7062C48.954 29.5485 51.9556 22.6864 57.2918 17.6252C62.628 12.5639 69.863 9.71695 77.4096 9.70878ZM24.5474 9.70878C27.7644 9.70878 30.9091 10.6136 33.5839 12.3087C36.2587 14.0039 38.3435 16.4132 39.5746 19.2322C40.8057 22.0511 41.1278 25.153 40.5002 28.1455C39.8726 31.1381 38.3235 33.887 36.0487 36.0445C33.774 38.202 30.8758 39.6713 27.7206 40.2665C24.5655 40.8618 21.2951 40.5563 18.323 39.3886C15.3509 38.221 12.8106 36.2437 11.0233 33.7067C9.23609 31.1697 8.28215 28.1871 8.28215 25.1359C8.28753 21.0459 10.0029 17.1249 13.0521 14.2329C16.1012 11.3409 20.2353 9.71388 24.5474 9.70878ZM69.2769 102.271C66.06 102.271 62.9152 101.367 60.2404 99.6714C57.5656 97.9762 55.4809 95.5669 54.2498 92.7479C53.0187 89.929 52.6966 86.8271 53.3242 83.8346C53.9518 80.842 55.5009 78.0932 57.7757 75.9356C60.0504 73.7781 62.9486 72.3088 66.1037 71.7136C69.2589 71.1183 72.5293 71.4238 75.5014 72.5915C78.4735 73.7591 81.0138 75.7364 82.801 78.2734C84.5883 80.8104 85.5422 83.793 85.5422 86.8442C85.5368 90.9342 83.8214 94.8552 80.7723 97.7472C77.7231 100.639 73.5891 102.266 69.2769 102.271Z" fill="url(#paint2_linear)"/>
<g filter="url(#filter0_d)">
<path d="M59.2051 48.8555V24.0137L54.9824 22.7783L55.3643 20.9141H67.9424L67.583 22.8232L63.5176 24.0586V48.8555L67.8525 50.1133L67.4033 52H54.8252L55.207 50.0459L59.2051 48.8555ZM93.6826 23.7891L89.6172 23.0254L89.999 20.9141H100.241L99.8145 23.0479L96.9395 23.8789L86.585 52L83.2832 52.7861L71.8955 23.8789L68.8633 23.0703L69.2451 20.9141H81.1943L80.835 23.0029L77.1064 23.9238L85.8887 47.4629L93.6826 23.7891Z" fill="#8787C1"/>
</g>
<defs>
<filter id="filter0_d" x="53.8252" y="20.9141" width="47.416" height="33.8721" filterUnits="userSpaceOnUse" color-interpolation-filters="sRGB">
<feFlood flood-opacity="0" result="BackgroundImageFix"/>
<feColorMatrix in="SourceAlpha" type="matrix" values="0 0 0 0 0 0 0 0 0 0 0 0 0 0 0 0 0 0 127 0"/>
<feOffset dy="1"/>
<feGaussianBlur stdDeviation="0.5"/>
<feColorMatrix type="matrix" values="0 0 0 0 0.972549 0 0 0 0 0.494118 0 0 0 0 0.227451 0 0 0 1 0"/>
<feBlend mode="difference" in2="BackgroundImageFix" result="effect1_dropShadow"/>
<feBlend mode="normal" in="SourceGraphic" in2="effect1_dropShadow" result="shape"/>
</filter>
<linearGradient id="paint0_linear" x1="0" y1="2" x2="57" y2="110" gradientUnits="userSpaceOnUse">
<stop offset="0.375927" stop-color="#64649C"/>
<stop offset="1" stop-color="white" stop-opacity="0"/>
</linearGradient>
<linearGradient id="paint1_linear" x1="88.5" y1="-34.5" x2="55.0762" y2="109.554" gradientUnits="userSpaceOnUse">
<stop offset="0.238321" stop-color="white" stop-opacity="0"/>
<stop offset="1" stop-color="#70DDF1"/>
</linearGradient>
<linearGradient id="paint2_linear" x1="57" y1="56" x2="57" y2="110" gradientUnits="userSpaceOnUse">
<stop offset="0.442832" stop-color="#4D2A54" stop-opacity="0"/>
<stop offset="1" stop-color="#7499BE"/>
</linearGradient>
</defs>
</svg>
